# WaveFront *.obj file (generated by CINEMA 4D)

mtllib ./ship.mtl

v -2.65984869003296 -0.06818510591984 -2
v -1.8373771905899 0.93181490898132 2
v -1.8373771905899 -0.06818510591984 -2
v -1.8373771905899 0.93181490898132 -2
v -1.01490569114685 -0.06818510591984 -2
v -1.01490569114685 1.42795276641846 -2
v -0.19243416190147 -0.06818510591984 -2
v -0.19243416190147 1.42795276641846 -2
v 0.6300373673439 -0.06818510591984 -2
v 0.6300373673439 1.42795276641846 -2
v 1.4525089263916 -0.06818510591984 -2
v 1.4525089263916 1.42795276641846 -2
v 2.27498030662537 -0.06818510591984 -2
v 2.27498030662537 1.42795276641846 -2
v 3.09745192527771 -0.06818510591984 -2
v 2.62763261795044 1.42795276641846 -2
v 3.91992354393005 -0.06818510591984 -2
v 3.45010423660278 1.42795276641846 -2
v 4.74239492416382 -0.06818510591984 -2
v -2.65984869003296 -0.06818510591984 2
v 5.09504747390747 -0.06818510591984 -2
v 4.27257585525513 0.93181490898132 2
v 5.09504747390747 -0.06818510591984 2
v 4.27257585525513 0.93181490898132 -2
v 4.27257585525513 -0.06818510591984 2
v -1.8373771905899 -0.06818510591984 2
v 3.45010423660278 -0.06818510591984 2
v 3.45010423660278 1.42795276641846 2
v 2.62763261795044 -0.06818510591984 2
v 2.62763261795044 1.42795276641846 2
v 2.27498030662537 -0.06818510591984 2
v 2.27498030662537 1.42795276641846 2
v 1.4525089263916 -0.06818510591984 2
v 1.4525089263916 1.42795276641846 2
v 0.6300373673439 -0.06818510591984 2
v 0.6300373673439 1.42795276641846 2
v -0.19243416190147 -0.06818510591984 2
v -0.19243416190147 1.42795276641846 2
v -1.01490569114685 -0.06818510591984 2
v -1.01490569114685 1.42795276641846 2
# 40 vertices

vn 0 0 -1
vn 0 0 0
vn 0 0 1
vn 0 -1 0
vn -0.26807546615601 0.96339792013168 0
vn 0 1 0
vn 0.26807543635368 0.96339792013168 0
vn 0.65383821725845 0.75663435459137 0
vn 0.77233099937439 0.63522028923035 0
vn -0.65383821725845 0.75663435459137 0
vn -0.77233099937439 0.63522028923035 0
# 11 normals

vt 0 0 0
vt 0.09999999403954 0.5 0
vt 0.10000000149012 0 0
vt 0 1 0
vt 0.89999997615814 0.5 0
vt 0.89999997615814 0 0
vt 0.80000001192093 0 0
vt 0.80000001192093 1 0
vt 0.20000000298023 0 0
vt 0.20000000298023 1 0
vt 0.30000001192093 1 0
vt 0.30000001192093 0 0
vt 0.40000000596046 1 0
vt 0.40000000596046 0 0
vt 0.5 1 0
vt 0.5 0 0
vt 0.60000002384186 1 0
vt 0.60000002384186 0 0
vt 0.69999998807907 1 0
vt 0.69999998807907 0 0
vt 1 0 0
vt 0.89999997615814 1 0
vt 1 1 0
vt 0.10000000149012 1 0
vt 0 0.5 0
vt 1 0.5 0
# 26 texture coordinates

o base
usemtl default
f 1/1/1 4/2/1 3/3/1
f 2/5/3 26/6/3 39/7/3 40/8/3
f 5/9/1 6/10/1 8/11/1 7/12/1
f 7/12/1 8/11/1 10/13/1 9/14/1
f 9/14/1 10/13/1 12/15/1 11/16/1
f 11/16/1 12/15/1 14/17/1 13/18/1
f 13/18/1 14/17/1 16/19/1 15/20/1
f 15/20/1 16/19/1 18/8/1 17/7/1
f 28/10/3 27/9/3 25/3/3 22/2/3
f 19/6/1 24/5/1 21/21/1
f 31/18/4 13/17/4 15/19/4 29/20/4
f 23/1/3 22/2/3 25/3/3
f 24/5/1 19/6/1 17/7/1 18/8/1
f 27/9/3 28/10/3 30/11/3 29/12/3
f 29/12/3 30/11/3 32/13/3 31/14/3
f 31/14/3 32/13/3 34/15/3 33/16/3
f 33/16/3 34/15/3 36/17/3 35/18/3
f 35/18/3 36/17/3 38/19/3 37/20/3
f 37/20/3 38/19/3 40/8/3 39/7/3
f 6/10/1 5/9/1 3/3/1 4/2/1
f 26/6/3 2/5/3 20/21/3
f 25/6/4 19/22/4 21/23/4 23/21/4
f 27/7/4 17/8/4 19/22/4 25/6/4
f 29/20/4 15/19/4 17/8/4 27/7/4
f 6/9/5 40/10/5 38/11/6 8/12/6
f 8/12/6 38/11/6 36/13/6 10/14/6
f 10/14/6 36/13/6 34/15/6 12/16/6
f 12/16/6 34/15/6 32/17/6 14/18/6
f 14/18/6 32/17/6 30/19/6 16/20/6
f 16/20/6 30/19/6 28/8/7 18/7/7
f 35/14/4 9/13/4 11/15/4 33/16/4
f 33/16/4 11/15/4 13/17/4 31/18/4
f 20/1/4 1/4/4 3/24/4 26/3/4
f 26/3/4 3/24/4 5/10/4 39/9/4
f 39/9/4 5/10/4 7/11/4 37/12/4
f 37/12/4 7/11/4 9/13/4 35/14/4
f 24/25/8 18/1/7 28/21/7 22/26/8 23/23/9 21/4/9
f 4/25/10 1/4/11 20/23/11 2/26/10 40/21/5 6/1/5

v 14.83703708648682 -0.12541776895523 -0.00000000055147
v 10.26923561096191 -0.12342672049999 -0.00344859156758
v 7.28930807113647 -4.30064487457275 0
v 7.24365377426147 -3.32382726669312 1.86996328830719
v 7.24365377426147 -0.12049865722656 2.84632062911987
v 7.24365377426147 -0.12342672049999 -0.00344859156758
v 12.2089958190918 -3.32382726669312 -0.8274849653244
v 12.14349174499512 -0.12049866467714 -1.81154072284698
v 14.83703708648682 -0.12342672795057 0.00344859366305
v 12.14349174499512 -3.97289037704468 0.00000000146858
v 14.83703708648682 -0.12342165410519 -0.00345738092437
v 10.02905750274658 -3.32382726669312 -1.39744198322296
v 10.07323551177979 -0.85043835639954 -2.6175217628479
v 10.26923561096191 -0.12342672049999 0.00344859156758
v 7.24365377426147 -0.12342165410519 0.00345737696625
v 7.24365377426147 -0.12342472374439 -0.00072540919064
v 7.24365377426147 -0.12342472374439 0.00072540919064
v 10.07323551177979 -0.85043835639954 2.6175217628479
v 14.83703708648682 -0.12342472374439 -0.00072540919064
v 10.26923561096191 -0.12342365831137 -0.0007257971447
v 10.07323551177979 -0.12049865722656 -2.53382229804993
v 7.24365377426147 -0.12342165410519 -0.00345737696625
v 10.26923561096191 -0.12342472374439 -0.00072540919064
v 7.24365377426147 -0.12342672049999 0.00344859156758
v 14.83703708648682 -0.12342472374439 0.00072540919064
v 10.02905750274658 -3.32382726669312 1.39744198322296
v 7.24365377426147 -0.12049865722656 -2.84632062911987
v 10.26923561096191 -0.12342165410519 -0.00345737696625
v 12.14349174499512 -0.85043835639954 1.88051760196686
v 7.24365377426147 -0.12342365831137 -0.0007257971447
v 7.24365377426147 -0.85043835639954 -2.97502875328064
v 7.24365377426147 -0.85043835639954 2.97502875328064
v 7.24365377426147 -0.12342365831137 0.0007257971447
v 10.07323551177979 -0.12049865722656 2.53382229804993
v 7.24365377426147 -3.32382726669312 -1.86996328830719
v 10.26923561096191 -0.12342365831137 0.0007257971447
v 10.26923561096191 -0.12342165410519 0.00345737696625
v 14.83703708648682 -0.12342365831137 0.0007257971447
v 8.35045433044434 -0.12541776895523 0
v 9.49306392669678 -4.30064487457275 0
v 10.26923561096191 -0.12342472374439 0.00072540919064
v 14.83703708648682 -0.12342365831137 -0.0007257971447
v 12.14349174499512 -0.85043835639954 -1.88051760196686
v 10.07323551177979 -4.30064487457275 0
v 8.35045433044434 -0.12342472374439 0.00072540919064
v 8.35045433044434 -0.12049865722656 -2.84632062911987
v 8.35045433044434 -3.32382726669312 -1.86996328830719
v 8.35045433044434 -0.12342165410519 -0.00345737696625
v 8.35045433044434 -0.12342672049999 0.00344859156758
v 8.35045433044434 -0.12342365831137 -0.0007257971447
v 8.35045433044434 -0.85043835639954 -2.97502875328064
v 14.83703708648682 -0.12541776895523 0.00000000055147
v 12.2089958190918 -3.32382726669312 0.8274849653244
v 12.14349174499512 -0.12049866467714 1.81154072284698
v 14.83703708648682 -0.12342672795057 -0.00344859366305
v 12.14349174499512 -3.97289037704468 -0.00000000146858
v 14.83703708648682 -0.12342165410519 0.00345738092437
v 0 -0.12342365831137 0.0007257971447
v 0 -0.12342165410519 0.00345737696625
v 0 -0.12342472374439 -0.00072540919064
v 0 -0.12049864977598 2.84632062911987
v 0 -0.12342672049999 -0.00344859156758
v 0 -0.85043835639954 2.97502875328064
v 0 -3.32382726669312 1.86996328830719
v 0 -4.30064487457275 0
v 0 -3.32382726669312 -1.86996328830719
v 0 -0.85043835639954 -2.97502875328064
v 0 -0.12049864977598 -2.84632062911987
v 0 -0.12342165410519 -0.00345737696625
v 0 -0.12342365831137 -0.0007257971447
v 0 -0.12342472374439 0.00072540919064
v 0 -0.12342672049999 0.00344859156758
v -12.62120246887207 -0.12541776895523 -0.00000000055147
v -7.76943874359131 -0.12342672049999 -0.00344859156758
v -4.78951120376587 -4.30064487457275 0
v -4.74385690689087 -3.32382726669312 1.86996328830719
v -4.74385690689087 -0.12049865722656 2.84632062911987
v -4.74385690689087 -0.12342672049999 -0.00344859156758
v -9.70919895172119 -3.32382726669312 -0.8274849653244
v -9.64369487762451 -0.12049866467714 -1.81154072284698
v -12.62120246887207 -0.12342672795057 0.00344859366305
v -9.64369487762451 -3.97289037704468 0.00000000146858
v -12.62120246887207 -0.12342165410519 -0.00345738092437
v -7.52926063537598 -3.32382726669312 -1.39744198322296
v -7.57343864440918 -0.85043835639954 -2.6175217628479
v -7.76943874359131 -0.12342672049999 0.00344859156758
v -4.74385690689087 -0.12342165410519 0.00345737696625
v -4.74385690689087 -0.12342472374439 -0.00072540919064
v -4.74385690689087 -0.12342472374439 0.00072540919064
v -7.57343864440918 -0.85043835639954 2.6175217628479
v -12.62120246887207 -0.12342472374439 -0.00072540919064
v -7.76943874359131 -0.12342365831137 -0.0007257971447
v -7.57343864440918 -0.12049865722656 -2.53382229804993
v -4.74385690689087 -0.12342165410519 -0.00345737696625
v -7.76943874359131 -0.12342472374439 -0.00072540919064
v -4.74385690689087 -0.12342672049999 0.00344859156758
v -12.62120246887207 -0.12342472374439 0.00072540919064
v -7.52926063537598 -3.32382726669312 1.39744198322296
v -4.74385690689087 -0.12049865722656 -2.84632062911987
v -7.76943874359131 -0.12342165410519 -0.00345737696625
v -9.64369487762451 -0.85043835639954 1.88051760196686
v -4.74385690689087 -0.12342365831137 -0.0007257971447
v -4.74385690689087 -0.85043835639954 -2.97502875328064
v -4.74385690689087 -0.85043835639954 2.97502875328064
v -4.74385690689087 -0.12342365831137 0.0007257971447
v -7.57343864440918 -0.12049865722656 2.53382229804993
v -4.74385690689087 -3.32382726669312 -1.86996328830719
v -7.76943874359131 -0.12342365831137 0.0007257971447
v -7.76943874359131 -0.12342165410519 0.00345737696625
v -12.62120246887207 -0.12342365831137 0.0007257971447
v -7.76943874359131 -0.12342472374439 0.00072540919064
v -12.62120246887207 -0.12342365831137 -0.0007257971447
v -9.64369487762451 -0.85043835639954 -1.88051760196686
v -7.57343864440918 -4.30064487457275 0
v -12.62120246887207 -0.12541776895523 0.00000000055147
v -9.70919895172119 -3.32382726669312 0.8274849653244
v -9.64369487762451 -0.12049866467714 1.81154072284698
v -12.62120246887207 -0.12342672795057 -0.00344859366305
v -9.64369487762451 -3.97289037704468 -0.00000000146858
v -12.62120246887207 -0.12342165410519 0.00345738092437
# 120 vertices

vn 0.00000000000008 0.99999970197678 -0.00073394342326
vn 0 0.99999970197678 -0.00073394353967
vn -0.00001608452658 0.99999958276749 -0.0008980705752
vn -0.00016288337065 0.99999928474426 -0.00120618590154
vn 0.00000000081539 0.99999970197678 -0.00073461100692
vn 0.00000000040769 0.99999970197678 -0.00073392718332
vn 0.00000000020385 0.99999970197678 -0.00073404877912
vn 0.00000000040769 0.99999970197678 -0.00073439069092
vn 0.00000000000016 0.99999970197678 0.00073394330684
vn -0.00029359746259 0.9999988079071 0.00149718334433
vn -0.00016288337065 0.99999928474426 0.00120618590154
vn 0.00000000000008 0.99999970197678 0.00073394348146
vn 0.47551083564758 -0.54650259017944 -0.68936514854431
vn 0.13669216632843 -0.79711157083511 -0.58815681934357
vn 0.08823233097792 -0.82715284824371 -0.55500739812851
vn 0.15044735372066 -0.64429289102554 -0.74983477592468
vn 0.44118317961693 -0.26726031303406 -0.85669672489166
vn 0.22138923406601 -0.15195168554783 -0.96327435970306
vn 0.00000000040769 0.99999970197678 0.00073439069092
vn 0.00000000020385 0.99999970197678 0.00073404877912
vn 0.04523601010442 -0.67660343647003 -0.73495680093765
vn 0.06514110416174 -0.13452160358429 -0.98876720666885
vn 0 0.99999970197678 0.00073394359788
vn 0 0.99999970197678 0.00073370686732
vn 1 0 0
vn 0.01970867440104 -0.87060779333115 -0.49158275127411
vn 0.43637654185295 -0.1726597994566 -0.88304251432419
vn 0.50374239683151 -0.42835894227028 -0.75016814470291
vn 0.63999032974243 -0.43313163518906 -0.63467258214951
vn -0.00058719469234 0.99999725818634 0.00226064934395
vn -0.0003257667413 0.99999850988388 0.0016786553897
vn 0.63999032974243 -0.43313163518906 0.63467258214951
vn 0.47551083564758 -0.54650259017944 0.68936514854431
vn 0.76449865102768 -0.53521156311035 0.35929149389267
vn 0.76449865102768 -0.53521156311035 -0.35929149389267
vn -0.00029359746259 0.9999988079071 -0.00149718334433
vn -0.0003257667413 0.99999850988388 -0.0016786553897
vn -0.00058719469234 0.99999725818634 -0.00226064934395
vn 0.43637654185295 -0.1726597994566 0.88304251432419
vn 0.22500188648701 0.12128977477551 0.96677964925766
vn 0.22138924896717 -0.15195170044899 0.96327435970306
vn 0.4411832690239 -0.26726031303406 0.85669672489166
vn 0 0.99999970197678 -0.00073324330151
vn 0 0.99999970197678 -0.00073370686732
vn -0.00001608452112 0.99999958276749 0.0008980705752
vn -0.00003216905316 0.9999994635582 -0.0010624245042
vn 0.05830154195428 0.15856201946735 0.98562622070312
vn 0.06514110416174 -0.13452160358429 0.98876720666885
vn 0.00000000081539 0.99999970197678 0.00073461100692
vn 0.00000000040769 0.99999970197678 0.00073392718332
vn 0.22500188648701 0.12128977477551 -0.96677964925766
vn 0.05830154195428 0.15856201946735 -0.98562622070312
vn -0.00003216904224 0.9999994635582 0.0010624245042
vn 0 0.99999970197678 0.00073324330151
vn 0.00000000000016 0.99999970197678 -0.00073394330684
vn 0.1504473388195 -0.64429289102554 0.74983483552933
vn 0.08823233097792 -0.82715284824371 0.55500739812851
vn 0.13669216632843 -0.79711157083511 0.58815681934357
vn 0.04523601010442 -0.67660343647003 0.73495680093765
vn 0.01970867440104 -0.87060779333115 0.49158275127411
vn 0.50374239683151 -0.42835894227028 0.75016814470291
vn -0.00000000006554 0.99999958276749 -0.00088095251704
vn -0.00000000013108 0.9999994635582 -0.00102818838786
vn -0.00000000002353 0.17364825308323 0.98480772972107
vn -0.0000000000123 -0.12251221388578 0.99246698617935
vn 0 -0.68513780832291 0.72841346263886
vn 0 -0.88635444641113 0.46300733089447
vn 0 -0.88635444641113 -0.46300733089447
vn 0 -0.68513780832291 -0.7284135222435
vn 0 -0.12251221388578 -0.99246698617935
vn 0 0.17364825308323 -0.98480772972107
vn -0.0000000001355 0.9999994635582 0.00102818838786
vn -0.00000000006775 0.99999958276749 0.00088095257524
vn 0 0.99999970197678 0.00073394353967
vn -0.00000000000008 0.99999970197678 -0.00073394342326
vn 0.00018178844766 0.99999916553497 -0.00126037327573
vn 0.00001608446109 0.99999958276749 -0.0008980705752
vn 0 0.99999970197678 -0.00073394359788
vn -0.00000000076766 0.99999970197678 -0.00073461094871
vn -0.00000000038383 0.99999970197678 -0.00073439069092
vn -0.00000000019192 0.99999970197678 -0.00073404877912
vn -0.00000000038383 0.99999970197678 -0.00073392712511
vn -0.00000000000015 0.99999970197678 0.00073394330684
vn -0.00000000000008 0.99999970197678 0.00073394342326
vn 0.00018178843311 0.99999916553497 0.00126037315931
vn 0.00033140761661 0.99999862909317 0.00160555762704
vn -0.45290765166283 -0.55400782823563 -0.69853419065475
vn -0.1504473388195 -0.64429289102554 -0.74983483552933
vn -0.08823233097792 -0.82715284824371 -0.55500739812851
vn -0.45968940854073 -0.72250759601593 -0.51639950275421
vn -0.42068827152252 -0.27079817652702 -0.86584621667862
vn -0.22138923406601 -0.15195168554783 -0.96327435970306
vn -0.00000000038383 0.99999970197678 0.00073439069092
vn -0.00000000019192 0.99999970197678 0.00073404877912
vn -0.06514110416174 -0.13452160358429 -0.98876720666885
vn -0.04523601010442 -0.67660343647003 -0.73495680093765
vn -1 0 0
vn -0.01970867440104 -0.87060785293579 -0.49158272147179
vn -0.41689410805702 -0.17498895525932 -0.89195185899734
vn -0.6029098033905 -0.4492175579071 -0.65932041406631
vn -0.46789190173149 -0.4334043264389 -0.77021938562393
vn 0.00036357686622 0.99999833106995 0.001787029556
vn 0.00066281494219 0.99999672174454 0.00247739744373
vn -0.60290974378586 -0.4492175579071 0.65932047367096
vn -0.45968940854073 -0.72250759601593 0.51639950275421
vn -0.45290765166283 -0.55400776863098 0.6985342502594
vn 0.00033140761661 0.99999862909317 -0.00160555762704
vn 0.00066281494219 0.99999672174454 -0.00247739744373
vn 0.00036357686622 0.99999833106995 -0.001787029556
vn -0.41689410805702 -0.17498895525932 0.89195185899734
vn -0.42068827152252 -0.27079820632935 0.86584627628326
vn -0.22138923406601 -0.15195168554783 0.96327435970306
vn -0.22500188648701 0.12128977477551 0.96677964925766
vn 0.00001608445382 0.99999958276749 0.00089807063341
vn 0.00003216892219 0.9999994635582 -0.00106242462061
vn -0.06514110416174 -0.13452160358429 0.98876720666885
vn -0.05830154195428 0.15856201946735 0.98562622070312
vn -0.00000000076766 0.99999970197678 0.00073461094871
vn -0.00000000038383 0.99999970197678 0.00073392712511
vn -0.22500188648701 0.12128977477551 -0.96677964925766
vn -0.05830154195428 0.15856201946735 -0.98562622070312
vn 0.00003216890764 0.9999994635582 0.00106242462061
vn -0.00000000000015 0.99999970197678 -0.00073394330684
vn -0.08823233097792 -0.82715284824371 0.55500739812851
vn -0.15044735372066 -0.64429289102554 0.74983477592468
vn -0.04523600637913 -0.67660337686539 0.73495680093765
vn -0.01970867440104 -0.87060785293579 0.49158272147179
vn -0.46789190173149 -0.4334043264389 0.77021938562393
# 128 normals

vt 0.50023877620697 0.49991309642792 0
vt 0.50023901462555 0.49958598613739 0
vt 0.5002384185791 0.50041300058365 0
vt 0.50023865699768 0.50008690357208 0
vt 0.11697778105736 0.17860627174377 0
vt 0.41317588090897 0.00759613513947 0
vt 0.5 0.5 0
vt 0.50058901309967 0.02300941944122 0
# 8 texture coordinates

o cabin
usemtl default
f 76/27/12 73/27/13 55/28/14 77/28/15
f 95/29/16 42/29/17 63/30/18 59/30/19
f 82/27/20 51/28/21 68/28/22 60/27/23
f 47/31/24 50/25/25 84/25/26 52/31/27
f 83/32/28 47/31/24 52/31/27 53/32/29
f 65/30/30 82/27/20 60/27/23 81/30/31
f 53/32/29 52/31/27 75/31/32 71/32/33
f 81/30/31 60/27/23 70/27/34 57/30/35
f 92/33/36 78/27/36 97/28/36
f 52/31/27 84/25/26 43/25/37 75/31/32
f 48/34/38 51/28/39 41/33/40 83/32/28
f 41/33/36 65/30/36 49/29/36
f 51/28/21 48/34/41 61/34/42 68/28/22
f 92/33/43 93/31/44 96/25/45
f 41/33/36 82/27/36 65/30/36
f 41/33/40 50/25/46 47/31/24
f 97/28/47 77/28/15 74/34/48 94/34/49
f 41/33/36 51/28/36 82/27/36
f 94/34/50 74/34/51 58/32/52 69/32/53
f 92/33/36 95/29/36 59/30/36
f 42/29/17 46/29/54 56/30/55 63/30/18
f 92/33/43 69/32/53 93/31/44
f 60/27/23 68/28/22 62/28/56 70/27/34
f 41/33/40 47/31/24 83/32/28
f 77/28/15 55/28/14 45/34/57 74/34/48
f 74/34/51 45/34/58 72/32/59 58/32/52
f 49/29/60 65/30/30 81/30/31 54/29/61
f 48/34/38 83/32/28 53/32/29 61/34/62
f 61/34/62 53/32/29 71/32/33 67/34/63
f 68/28/22 61/34/42 67/34/64 62/28/56
f 54/29/61 81/30/31 57/30/35 64/29/65
f 78/27/66 76/27/12 77/28/15 97/28/47
f 93/31/44 66/31/67 84/25/68 96/25/69
f 69/32/53 58/32/52 66/31/67 93/31/44
f 59/30/19 63/30/18 76/27/12 78/27/66
f 58/32/52 72/32/59 44/31/70 66/31/67
f 63/30/18 56/30/55 73/27/13 76/27/12
f 92/33/36 59/30/36 78/27/36
f 66/31/67 44/31/70 43/25/71 84/25/68
f 94/34/50 69/32/53 92/33/43 97/28/72
f 73/4/13 98/23/13 99/21/73 55/1/14
f 56/4/55 100/23/55 98/21/13 73/1/13
f 55/4/14 99/23/73 101/21/74 45/1/57
f 46/4/54 102/23/54 100/21/55 56/1/55
f 45/4/58 101/23/75 103/21/76 72/1/59
f 72/4/59 103/23/76 104/21/77 44/1/70
f 44/4/70 104/23/77 105/21/78 43/1/71
f 43/4/37 105/23/79 106/21/80 75/1/32
f 75/4/32 106/23/80 107/21/81 71/1/33
f 71/4/33 107/23/81 108/21/82 67/1/63
f 67/4/64 108/23/83 109/21/84 62/1/56
f 62/4/56 109/23/84 110/21/85 70/1/34
f 70/4/34 110/23/85 111/21/35 57/1/35
f 57/4/35 111/23/35 112/21/65 64/1/65
f 148/27/86 149/28/87 127/28/88 145/27/89
f 158/29/90 131/30/91 135/30/92 114/29/93
f 152/27/94 132/27/95 140/28/96 123/28/97
f 119/31/98 124/31/99 154/25/100 122/25/101
f 153/32/102 125/32/103 124/31/99 119/31/98
f 137/30/104 151/30/105 132/27/95 152/27/94
f 125/32/103 143/32/106 147/31/107 124/31/99
f 151/30/105 129/30/35 142/27/85 132/27/95
f 155/33/108 160/28/108 150/27/108
f 124/31/99 147/31/107 115/25/109 154/25/100
f 120/34/110 153/32/102 113/33/111 123/28/112
f 113/33/108 121/29/108 137/30/108
f 123/28/97 140/28/96 133/34/113 120/34/114
f 155/33/115 159/25/116 156/31/117
f 113/33/108 137/30/108 152/27/108
f 113/33/111 119/31/98 122/25/101
f 160/28/118 157/34/119 146/34/120 149/28/87
f 113/33/108 152/27/108 123/28/108
f 157/34/121 141/32/122 130/32/123 146/34/124
f 155/33/108 131/30/108 158/29/108
f 114/29/93 135/30/92 128/30/55 118/29/54
f 155/33/115 156/31/117 141/32/122
f 132/27/95 142/27/85 134/28/125 140/28/96
f 113/33/111 153/32/102 119/31/98
f 149/28/87 146/34/120 117/34/126 127/28/88
f 146/34/124 130/32/123 144/32/127 117/34/128
f 121/29/129 126/29/130 151/30/105 137/30/104
f 120/34/110 133/34/131 125/32/103 153/32/102
f 133/34/131 139/34/132 143/32/106 125/32/103
f 140/28/96 134/28/125 139/34/133 133/34/113
f 126/29/130 136/29/65 129/30/35 151/30/105
f 150/27/134 160/28/118 149/28/87 148/27/86
f 156/31/117 159/25/116 154/25/135 138/31/136
f 141/32/122 156/31/117 138/31/136 130/32/123
f 131/30/91 150/27/134 148/27/86 135/30/92
f 130/32/123 138/31/136 116/31/137 144/32/127
f 135/30/92 148/27/86 145/27/89 128/30/55
f 155/33/108 150/27/108 131/30/108
f 138/31/136 154/25/135 115/25/138 116/31/137
f 157/34/121 160/28/139 155/33/115 141/32/122
f 145/4/89 127/1/88 99/21/73 98/23/13
f 128/4/55 145/1/89 98/21/13 100/23/55
f 127/4/88 117/1/126 101/21/74 99/23/73
f 118/4/54 128/1/55 100/21/55 102/23/54
f 117/4/128 144/1/127 103/21/76 101/23/75
f 144/4/127 116/1/137 104/21/77 103/23/76
f 116/4/137 115/1/138 105/21/78 104/23/77
f 115/4/109 147/1/107 106/21/80 105/23/79
f 147/4/107 143/1/106 107/21/81 106/23/80
f 143/4/106 139/1/132 108/21/82 107/23/81
f 139/4/133 134/1/125 109/21/84 108/23/83
f 134/4/125 142/1/85 110/21/85 109/23/84
f 142/4/85 129/1/35 111/21/35 110/23/85
f 129/4/35 136/1/65 112/21/65 111/23/35

