# WaveFront *.obj file (generated by CINEMA 4D)

mtllib ./ship.mtl

v 7.02285861968994 4.24772691726685 -0.76864176988602
v 7.02285861968994 4.63068056106567 -0.76864176988602
v 8.9376277923584 4.24772691726685 -0.76864176988602
v 8.9376277923584 4.63068056106567 -0.76864176988602
v 8.9376277923584 4.24772691726685 -0.3856880068779
v 8.9376277923584 4.63068056106567 -0.3856880068779
v 7.02285861968994 4.24772691726685 -0.3856880068779
v 7.02285861968994 4.63068056106567 -0.3856880068779
# 8 vertices

vn 0 0 -1
vn 1 0 0
vn 0 0 1
vn -1 0 0
vn 0 1 0
vn 0 -1 0
# 6 normals

vt 0 0 0
vt 0 1 0
vt 1 1 0
vt 1 0 0
# 4 texture coordinates

o barrel1.1
usemtl default
f 1/1/1 2/2/1 4/3/1 3/4/1
f 3/1/2 4/2/2 6/3/2 5/4/2
f 5/1/3 6/2/3 8/3/3 7/4/3
f 7/1/4 8/2/4 2/3/4 1/4/4
f 2/1/5 8/2/5 6/3/5 4/4/5
f 7/1/6 1/2/6 3/3/6 5/4/6

v 7.02285861968994 4.24772691726685 -0.11762034893036
v 7.02285861968994 4.63068056106567 -0.11762034893036
v 8.9376277923584 4.24772691726685 -0.11762034893036
v 8.9376277923584 4.63068056106567 -0.11762034893036
v 8.9376277923584 4.24772691726685 0.26533344388008
v 8.9376277923584 4.63068056106567 0.26533344388008
v 7.02285861968994 4.24772691726685 0.26533344388008
v 7.02285861968994 4.63068056106567 0.26533344388008
# 8 vertices

# 0 normal

# 0 texture coordinate

o barrel1.2
usemtl default
f 9/1/1 10/2/1 12/3/1 11/4/1
f 11/1/2 12/2/2 14/3/2 13/4/2
f 13/1/3 14/2/3 16/3/3 15/4/3
f 15/1/4 16/2/4 10/3/4 9/4/4
f 10/1/5 16/2/5 14/3/5 12/4/5
f 15/1/6 9/2/6 11/3/6 13/4/6

v 7.02285861968994 4.24772691726685 0.5334010720253
v 7.02285861968994 4.63068056106567 0.5334010720253
v 8.9376277923584 4.24772691726685 0.5334010720253
v 8.9376277923584 4.63068056106567 0.5334010720253
v 8.9376277923584 4.24772691726685 0.91635489463806
v 8.9376277923584 4.63068056106567 0.91635489463806
v 7.02285861968994 4.24772691726685 0.91635489463806
v 7.02285861968994 4.63068056106567 0.91635489463806
# 8 vertices

# 0 normal

# 0 texture coordinate

o barrel1.3
usemtl default
f 17/1/1 18/2/1 20/3/1 19/4/1
f 19/1/2 20/2/2 22/3/2 21/4/2
f 21/1/3 22/2/3 24/3/3 23/4/3
f 23/1/4 24/2/4 18/3/4 17/4/4
f 18/1/5 24/2/5 22/3/5 20/4/5
f 23/1/6 17/2/6 19/3/6 21/4/6

v 4.53717851638794 3.86208844184875 -1.43058049678802
v 4.53717851638794 4.8194727897644 -1.43058049678802
v 7.40933179855347 3.86208844184875 -1.43058049678802
v 7.40933179855347 4.8194727897644 -1.43058049678802
v 7.40933179855347 3.86208844184875 1.4415727853775
v 7.40933179855347 4.8194727897644 1.4415727853775
v 4.53717851638794 3.86208844184875 1.4415727853775
v 4.53717851638794 4.8194727897644 1.4415727853775
# 8 vertices

# 0 normal

# 0 texture coordinate

o turret1
usemtl default
f 25/1/1 26/2/1 28/3/1 27/4/1
f 27/1/2 28/2/2 30/3/2 29/4/2
f 29/1/3 30/2/3 32/3/3 31/4/3
f 31/1/4 32/2/4 26/3/4 25/4/4
f 26/1/5 32/2/5 30/3/5 28/4/5
f 31/1/6 25/2/6 27/3/6 29/4/6

v -7.185706615448 4.24772691726685 0.77963411808014
v -7.185706615448 4.63068056106567 0.77963411808014
v -9.1004753112793 4.24772691726685 0.77963411808014
v -9.1004753112793 4.63068056106567 0.77963411808014
v -9.1004753112793 4.24772691726685 0.39668029546738
v -9.1004753112793 4.63068056106567 0.39668029546738
v -7.185706615448 4.24772691726685 0.39668029546738
v -7.185706615448 4.63068056106567 0.39668029546738
# 8 vertices

# 0 normal

# 0 texture coordinate

o barrel2.1
usemtl default
f 33/1/3 34/2/3 36/3/3 35/4/3
f 35/1/4 36/2/4 38/3/4 37/4/4
f 37/1/1 38/2/1 40/3/1 39/4/1
f 39/1/2 40/2/2 34/3/2 33/4/2
f 34/1/5 40/2/5 38/3/5 36/4/5
f 39/1/6 33/2/6 35/3/6 37/4/6

v -7.185706615448 4.24772691726685 0.12861266732216
v -7.185706615448 4.63068056106567 0.12861266732216
v -9.1004753112793 4.24772691726685 0.12861266732216
v -9.1004753112793 4.63068056106567 0.12861266732216
v -9.1004753112793 4.24772691726685 -0.25434112548828
v -9.1004753112793 4.63068056106567 -0.25434112548828
v -7.185706615448 4.24772691726685 -0.25434112548828
v -7.185706615448 4.63068056106567 -0.25434112548828
# 8 vertices

# 0 normal

# 0 texture coordinate

o barrel2.2
usemtl default
f 41/1/3 42/2/3 44/3/3 43/4/3
f 43/1/4 44/2/4 46/3/4 45/4/4
f 45/1/1 46/2/1 48/3/1 47/4/1
f 47/1/2 48/2/2 42/3/2 41/4/2
f 42/1/5 48/2/5 46/3/5 44/4/5
f 47/1/6 41/2/6 43/3/6 45/4/6

v -7.185706615448 4.24772691726685 -0.52240878343582
v -7.185706615448 4.63068056106567 -0.52240878343582
v -9.1004753112793 4.24772691726685 -0.52240878343582
v -9.1004753112793 4.63068056106567 -0.52240878343582
v -9.1004753112793 4.24772691726685 -0.90536254644394
v -9.1004753112793 4.63068056106567 -0.90536254644394
v -7.185706615448 4.24772691726685 -0.90536254644394
v -7.185706615448 4.63068056106567 -0.90536254644394
# 8 vertices

# 0 normal

# 0 texture coordinate

o barrel2.3
usemtl default
f 49/1/3 50/2/3 52/3/3 51/4/3
f 51/1/4 52/2/4 54/3/4 53/4/4
f 53/1/1 54/2/1 56/3/1 55/4/1
f 55/1/2 56/2/2 50/3/2 49/4/2
f 50/1/5 56/2/5 54/3/5 52/4/5
f 55/1/6 49/2/6 51/3/6 53/4/6

v -4.700026512146 3.86208844184875 1.4415727853775
v -4.700026512146 4.8194727897644 1.4415727853775
v -7.57217979431152 3.86208844184875 1.4415727853775
v -7.57217979431152 4.8194727897644 1.4415727853775
v -7.57217979431152 3.86208844184875 -1.43058049678802
v -7.57217979431152 4.8194727897644 -1.43058049678802
v -4.700026512146 3.86208844184875 -1.43058049678802
v -4.700026512146 4.8194727897644 -1.43058049678802
# 8 vertices

# 0 normal

# 0 texture coordinate

o turret2
usemtl default
f 57/1/3 58/2/3 60/3/3 59/4/3
f 59/1/4 60/2/4 62/3/4 61/4/4
f 61/1/1 62/2/1 64/3/1 63/4/1
f 63/1/2 64/2/2 58/3/2 57/4/2
f 58/1/5 64/2/5 62/3/5 60/4/5
f 63/1/6 57/2/6 59/3/6 61/4/6

v -9.65215015411377 0.0000981772464 -1.90161371231079
v -9.65215015411377 3.82963609695435 -3.82404160499573
v 9.49553871154785 0.0000981772464 -1.90161371231079
v 9.49553871154785 3.82963609695435 -3.82404160499573
v 9.49553871154785 0.0000981772464 1.91325700283051
v 9.49553871154785 3.82963609695435 3.8350338935852
v -9.65215015411377 0.0000981772464 1.91325700283051
v -9.65215015411377 3.82963609695435 3.8350338935852
# 8 vertices

vn 0 -0.44864293932915 -0.89371109008789
vn 0 -0.44852158427238 0.89377200603485
# 2 normals

vt 0.74908500909805 0 0
vt 0.2509999871254 0 0
vt 0.7490000128746 0 0
vt 0.25091499090195 0 0
vt 1 0.7490000128746 0
vt 1 0.25091505050659 0
vt 0 0.25091505050659 0
vt 0 0.7490000128746 0
# 8 texture coordinates

o base
usemtl default
f 69/5/2 67/6/2 68/2/2 70/3/2
f 67/2/7 65/3/7 66/4/7 68/1/7
f 72/2/4 66/3/4 65/7/4 71/8/4
f 67/9/6 69/10/6 71/11/6 65/12/6
f 66/1/5 72/2/5 70/3/5 68/4/5
f 72/2/8 71/3/8 69/4/8 70/1/8

v -2.50888252258301 3.84944200515747 -1.43058049678802
v -2.50888252258301 5.76421117782593 -1.43058049678802
v 2.27803993225098 3.84944200515747 -1.43058049678802
v 2.27803993225098 5.76421117782593 -1.43058049678802
v 2.27803993225098 3.84944200515747 1.4415727853775
v 2.27803993225098 5.76421117782593 1.4415727853775
v -2.50888252258301 3.84944200515747 1.4415727853775
v -2.50888252258301 5.76421117782593 1.4415727853775
# 8 vertices

# 0 normal

# 0 texture coordinate

o cabin
usemtl default
f 73/1/1 74/2/1 76/3/1 75/4/1
f 75/1/2 76/2/2 78/3/2 77/4/2
f 77/1/3 78/2/3 80/3/3 79/4/3
f 79/1/4 80/2/4 74/3/4 73/4/4
f 74/1/5 80/2/5 78/3/5 76/4/5
f 79/1/6 73/2/6 75/3/6 77/4/6

