# WaveFront *.obj file (generated by CINEMA 4D)

mtllib ./ship.mtl

v -9.65215015411377 0.0000981772464 -1.90161371231079
v -9.65215015411377 3.82963609695435 -3.82404160499573
v 9.49553871154785 0.0000981772464 -1.90161371231079
v 9.49553871154785 3.82963609695435 -3.82404160499573
v 9.49553871154785 0.0000981772464 1.91325700283051
v 9.49553871154785 3.82963609695435 3.8350338935852
v -9.65215015411377 0.0000981772464 1.91325700283051
v -9.65215015411377 3.82963609695435 3.8350338935852
# 8 vertices

vn 1 0 0
vn 0 -0.44864293932915 -0.89371109008789
vn -1 0 0
vn 0 -1 0
vn 0 1 0
vn 0 -0.44852158427238 0.89377200603485
# 6 normals

vt 0.74908500909805 0 0
vt 0.2509999871254 0 0
vt 0 1 0
vt 1 1 0
vt 1 0 0
vt 0 0 0
vt 0.7490000128746 0 0
vt 0.25091499090195 0 0
vt 1 0.7490000128746 0
vt 1 0.25091505050659 0
vt 0 0.25091505050659 0
vt 0 0.7490000128746 0
# 12 texture coordinates

o base
usemtl default
f 5/1/1 3/2/1 4/3/1 6/4/1
f 3/3/2 1/4/2 2/5/2 4/6/2
f 8/3/3 2/4/3 1/7/3 7/8/3
f 3/9/4 5/10/4 7/11/4 1/12/4
f 2/6/5 8/3/5 6/4/5 4/5/5
f 8/3/6 7/4/6 5/5/6 6/6/6

v -2.50888252258301 3.84944200515747 -1.43058049678802
v -2.50888252258301 5.76421117782593 -1.43058049678802
v 2.27803993225098 3.84944200515747 -1.43058049678802
v 2.27803993225098 5.76421117782593 -1.43058049678802
v 2.27803993225098 3.84944200515747 1.4415727853775
v 2.27803993225098 5.76421117782593 1.4415727853775
v -2.50888252258301 3.84944200515747 1.4415727853775
v -2.50888252258301 5.76421117782593 1.4415727853775
# 8 vertices

vn 0 0 -1
vn 0 0 1
# 2 normals

# 0 texture coordinate

o cabin
usemtl default
f 9/6/7 10/3/7 12/4/7 11/5/7
f 11/6/1 12/3/1 14/4/1 13/5/1
f 13/6/8 14/3/8 16/4/8 15/5/8
f 15/6/3 16/3/3 10/4/3 9/5/3
f 10/6/5 16/3/5 14/4/5 12/5/5
f 15/6/4 9/3/4 11/4/4 13/5/4

