# WaveFront *.obj file (generated by CINEMA 4D)

mtllib ./turret.mtl

v 0.04610948637128 -0.14226530492306 -0.84249830245972
v 0.04610948637128 0.24068847298622 -0.84249830245972
v 1.96087837219238 -0.14226530492306 -0.84249830245972
v 1.96087837219238 0.24068847298622 -0.84249830245972
v 1.96087837219238 -0.14226530492306 -0.4595445394516
v 1.96087837219238 0.24068847298622 -0.4595445394516
v 0.04610948637128 -0.14226530492306 -0.4595445394516
v 0.04610948637128 0.24068847298622 -0.4595445394516
# 8 vertices

vn 0 0 -1
vn 1 0 0
vn 0 0 1
vn -1 0 0
vn 0 1 0
vn 0 -1 0
# 6 normals

vt 0 0 0
vt 0 1 0
vt 1 1 0
vt 1 0 0
# 4 texture coordinates

o barrel1
usemtl default
f 1/1/1 2/2/1 4/3/1 3/4/1
f 3/1/2 4/2/2 6/3/2 5/4/2
f 5/1/3 6/2/3 8/3/3 7/4/3
f 7/1/4 8/2/4 2/3/4 1/4/4
f 2/1/5 8/2/5 6/3/5 4/4/5
f 7/1/6 1/2/6 3/3/6 5/4/6

v 0.04610948637128 -0.14226530492306 -0.19147689640522
v 0.04610948637128 0.24068847298622 -0.19147689640522
v 1.96087837219238 -0.14226530492306 -0.19147689640522
v 1.96087837219238 0.24068847298622 -0.19147689640522
v 1.96087837219238 -0.14226530492306 0.19147689640522
v 1.96087837219238 0.24068847298622 0.19147689640522
v 0.04610948637128 -0.14226530492306 0.19147689640522
v 0.04610948637128 0.24068847298622 0.19147689640522
# 8 vertices

# 0 normal

# 0 texture coordinate

o barrel2
usemtl default
f 9/1/1 10/2/1 12/3/1 11/4/1
f 11/1/2 12/2/2 14/3/2 13/4/2
f 13/1/3 14/2/3 16/3/3 15/4/3
f 15/1/4 16/2/4 10/3/4 9/4/4
f 10/1/5 16/2/5 14/3/5 12/4/5
f 15/1/6 9/2/6 11/3/6 13/4/6

v 0.04610948637128 -0.14226530492306 0.4595445394516
v 0.04610948637128 0.24068847298622 0.4595445394516
v 1.96087837219238 -0.14226530492306 0.4595445394516
v 1.96087837219238 0.24068847298622 0.4595445394516
v 1.96087837219238 -0.14226530492306 0.84249830245972
v 1.96087837219238 0.24068847298622 0.84249830245972
v 0.04610948637128 -0.14226530492306 0.84249830245972
v 0.04610948637128 0.24068847298622 0.84249830245972
# 8 vertices

# 0 normal

# 0 texture coordinate

o barrel3
usemtl default
f 17/1/1 18/2/1 20/3/1 19/4/1
f 19/1/2 20/2/2 22/3/2 21/4/2
f 21/1/3 22/2/3 24/3/3 23/4/3
f 23/1/4 24/2/4 18/3/4 17/4/4
f 18/1/5 24/2/5 22/3/5 20/4/5
f 23/1/6 17/2/6 19/3/6 21/4/6

v -2.4395706653595 -0.52790379524231 -1.50443708896637
v -2.4395706653595 0.42948064208031 -1.50443708896637
v 0.43258273601532 -0.52790379524231 -1.50443708896637
v 0.43258273601532 0.42948064208031 -1.50443708896637
v 0.43258273601532 -0.52790379524231 1.36771631240845
v 0.43258273601532 0.42948064208031 1.36771631240845
v -2.4395706653595 -0.52790379524231 1.36771631240845
v -2.4395706653595 0.42948064208031 1.36771631240845
# 8 vertices

# 0 normal

# 0 texture coordinate

o turret
usemtl default
f 25/1/1 26/2/1 28/3/1 27/4/1
f 27/1/2 28/2/2 30/3/2 29/4/2
f 29/1/3 30/2/3 32/3/3 31/4/3
f 31/1/4 32/2/4 26/3/4 25/4/4
f 26/1/5 32/2/5 30/3/5 28/4/5
f 31/1/6 25/2/6 27/3/6 29/4/6

